<?xml version="1.0" standalone="no"?>
<!DOCTYPE svg PUBLIC "-//W3C//DTD SVG 1.1//EN" "http://www.w3.org/Graphics/SVG/1.1/DTD/svg11.dtd" >
<svg xmlns="http://www.w3.org/2000/svg">
<metadata></metadata>
<defs>
<font id="noir-et-blancnormal" horiz-adv-x="909" >
<font-face units-per-em="2048" ascent="1638" descent="-410" />
<missing-glyph horiz-adv-x="835" />
<glyph horiz-adv-x="2048" />
<glyph horiz-adv-x="2048" />
<glyph unicode="&#xd;" horiz-adv-x="2048" />
<glyph unicode=" "  horiz-adv-x="835" />
<glyph unicode="&#x09;" horiz-adv-x="835" />
<glyph unicode="&#xa0;" horiz-adv-x="835" />
<glyph unicode="!" horiz-adv-x="204" d="M41 49q0 -25 18.5 -42t42.5 -17q25 0 43.5 18.5t18.5 42.5q0 25 -18.5 42.5t-43.5 17.5t-43 -18.5t-18 -43.5zM41 236h123v1710l-123 -31v-1679z" />
<glyph unicode="&#x22;" horiz-adv-x="454" d="M41 1714h123v232l-123 -31v-201zM291 1712h123v232l-123 -31v-201z" />
<glyph unicode="&#x26;" horiz-adv-x="1181" d="M41 629q0 -135 41 -252t114.5 -204t171 -135t205.5 -48q115 0 226.5 65.5t193.5 190.5l148 -240v219l-84 142q84 198 84 450h-123q0 -12 2 -29v-28q0 -131 -43 -258l-356 598q-18 31 -52 88q168 154 251 256t83 198q0 143 -65.5 223.5t-216.5 80.5q-55 0 -109.5 -21.5 t-99.5 -62.5t-71 -95.5t-26 -117.5q0 -111 26 -216.5t75 -213.5q-84 -72 -146.5 -134.5t-115 -135t-83 -153.5t-30.5 -167zM164 618q0 117 82 231t229 253q41 -74 66 -113l379 -620q-63 -117 -153 -186.5t-194 -69.5q-84 0 -158.5 36.5t-131 104.5t-88 161t-31.5 203z M438 1642q0 74 53.5 127.5t129.5 53.5q80 0 119.5 -53.5t39.5 -127.5t-66.5 -150.5t-201.5 -191.5q-37 80 -55.5 161t-18.5 181z" />
<glyph unicode="'" horiz-adv-x="204" d="M41 1714h123v232l-123 -31v-201z" />
<glyph unicode="," horiz-adv-x="204" d="M41 49q0 -25 18.5 -42t42.5 -17h7q-1 -70 -9 -127l35 -2q29 96 29 190q0 25 -18.5 42.5t-43.5 17.5t-43 -18.5t-18 -43.5z" />
<glyph unicode="-" horiz-adv-x="591" d="M41 543h510v123h-510v-123z" />
<glyph unicode="." horiz-adv-x="204" d="M41 49q0 -25 18.5 -42t42.5 -17q25 0 43.5 18.5t18.5 42.5q0 25 -18.5 42.5t-43.5 17.5t-43 -18.5t-18 -43.5z" />
<glyph unicode="0" d="M41 412q0 -82 32.5 -159t90 -136.5t132.5 -93t159 -33.5t159.5 33.5t132 93t89 136.5t32.5 159t-32.5 158.5t-89 135t-132 92t-159.5 33.5t-159 -33.5t-132.5 -92t-90 -135t-32.5 -158.5zM164 412q0 57 22.5 111.5t63.5 96.5t94.5 65.5t110.5 23.5t110 -23.5t94 -65.5 t63.5 -96.5t22.5 -111.5t-22.5 -111.5t-63.5 -96.5t-94 -66.5t-110 -24.5t-110.5 24.5t-94.5 66.5t-63.5 96t-22.5 112z" />
<glyph unicode="1" horiz-adv-x="204" d="M41 2h123v846l-123 -29v-817z" />
<glyph unicode="2" horiz-adv-x="901" d="M41 -10h819v123h-696v71q0 31 26.5 55.5t69.5 41t90 25.5t88 9q68 0 141.5 16.5t137 51.5t103.5 90t40 131q0 53 -37 96t-99 73t-135 44t-145 14q-57 0 -127.5 -17t-133 -50t-102.5 -79t-40 -99l123 -56q0 49 28.5 84t74.5 55.5t94.5 30t91.5 9.5q33 0 80 -5.5t94 -18.5 t78.5 -36.5t31.5 -58.5q0 -37 -28.5 -66.5t-75.5 -49t-103.5 -29t-105.5 -9.5q-184 0 -283.5 -71.5t-99.5 -204.5v-170z" />
<glyph unicode="3" horiz-adv-x="954" d="M41 586l123 -56q0 49 28.5 84t74.5 55.5t94.5 30t91.5 9.5q33 0 80 -5.5t94 -18.5t78.5 -36.5t31.5 -58.5q0 -82 -88 -118t-334 -36l-12 -121h4q100 0 188.5 -25.5t154 -73.5t103.5 -114.5t38 -146.5q0 -82 -41 -156.5t-115 -136t-171 -108t-210 -76.5l104 -92 q111 41 205 90t174 116.5t128 159.5t48 207q0 113 -69.5 219.5t-181.5 175.5q102 33 150 93.5t48 156.5q0 53 -37 96t-99 73t-135 44t-145 14q-57 0 -127.5 -17t-133 -50t-102.5 -79t-40 -99z" />
<glyph unicode="4" horiz-adv-x="901" d="M41 -10h522v-604h123v604h174v123h-174v202l-123 -30v-172h-393q10 68 32.5 132t59.5 154q55 129 83 223.5t28 208.5h-123q0 -96 -25.5 -185t-74.5 -216q-55 -139 -82 -234.5t-27 -205.5z" />
<glyph unicode="5" horiz-adv-x="880" d="M41 315q82 0 170 -12t175 -51t144.5 -114t57.5 -189q0 -139 -99.5 -266t-279.5 -205l104 -92q84 39 155 89t125 116.5t86 154.5t32 195q0 213 -123 337.5t-365 151.5l127 279h424l66 122h-576z" />
<glyph unicode="6" d="M41 410q0 -82 32.5 -159t90 -135.5t132.5 -92t159 -33.5t159.5 33.5t132 92t89 135.5t32.5 159t-31.5 158.5t-90 136t-133 93t-158.5 33.5q-123 0 -226 -69q27 100 50.5 173t56.5 157t78 181t108 216l-123 -31q-68 -111 -131 -246t-115.5 -279.5t-82 -278.5t-29.5 -240 v-4zM164 410q0 57 22.5 111t63.5 97.5t94 67t111 23.5q57 0 110 -23.5t94 -67t63.5 -97.5t22.5 -111t-22.5 -110.5t-63.5 -96.5t-94 -66.5t-110 -23.5t-110.5 23.5t-94.5 66.5t-63.5 96t-22.5 111z" />
<glyph unicode="7" horiz-adv-x="894" d="M41 662l125 8l6 39h508q-158 -334 -243 -668t-85 -655h123q0 334 91 689t288 756h-778l-17 -79z" />
<glyph unicode="8" d="M41 412q0 -82 32.5 -159t90 -136.5t132.5 -93t159 -33.5t159.5 33.5t132 93t89 136.5t32.5 159q0 113 -59 212t-158 154q66 49 104 123t38 156q0 68 -27 130t-75 111.5t-110 77t-130 27.5t-131.5 -27.5t-110.5 -76t-73.5 -112t-26.5 -130.5q0 -82 38.5 -157t106.5 -124 q-96 -55 -154.5 -153.5t-58.5 -210.5zM164 412q0 57 22.5 111.5t63.5 96.5t94.5 65.5t110.5 23.5t110 -23.5t94 -65.5t63.5 -96.5t22.5 -111.5t-22.5 -111.5t-63.5 -96.5t-94 -66.5t-110 -24.5t-110.5 24.5t-94.5 66.5t-63.5 96t-22.5 112zM231 1053q0 96 62.5 161.5 t159.5 67.5q94 0 151.5 -63.5t57.5 -161.5t-55.5 -162t-151.5 -64q-98 0 -161 62.5t-63 159.5z" />
<glyph unicode="9" d="M41 412q0 -82 32.5 -159t90 -136.5t132.5 -93t159 -33.5q125 0 225 69q-37 -94 -125 -254q-74 -131 -111.5 -221t-44.5 -198h123q14 96 50 179t102 204q96 174 145 313t49 326v4q0 82 -32.5 158.5t-89 135t-132 92t-159.5 33.5t-159 -33.5t-132.5 -92t-90 -135 t-32.5 -158.5zM164 412q0 57 22.5 111.5t63.5 96.5t94.5 65.5t110.5 23.5t110 -23.5t94 -65.5t63.5 -96.5t22.5 -111.5t-22.5 -111.5t-63.5 -96.5t-94 -66.5t-110 -24.5t-110.5 24.5t-94.5 66.5t-63.5 96t-22.5 112z" />
<glyph unicode=":" horiz-adv-x="204" d="M41 49q0 -25 18.5 -42t42.5 -17q25 0 43.5 18.5t18.5 42.5q0 25 -18.5 42.5t-43.5 17.5t-43 -18.5t-18 -43.5zM41 647q0 -25 18.5 -42t42.5 -17q25 0 43.5 18.5t18.5 42.5q0 25 -18.5 42.5t-43.5 17.5t-43 -18.5t-18 -43.5z" />
<glyph unicode=";" horiz-adv-x="204" d="M41 51q0 -25 18.5 -42t42.5 -17h7q-1 -70 -9 -127l35 -2q29 96 29 190q0 25 -18.5 42.5t-43.5 17.5t-43 -18.5t-18 -43.5zM41 647q0 -25 18.5 -42t42.5 -17q25 0 43.5 18.5t18.5 42.5q0 25 -18.5 42.5t-43.5 17.5t-43 -18.5t-18 -43.5z" />
<glyph unicode="?" horiz-adv-x="1062" d="M41 1475l115 -37q31 180 128 282.5t240 102.5q111 0 185.5 -32t115.5 -85t57.5 -118.5t16.5 -141.5q0 -78 -48 -143.5t-149 -161.5q-63 -61 -105 -105.5t-80 -100.5t-60.5 -124t-22.5 -145v-430h123v430q0 109 56.5 187.5t170.5 186.5q119 111 178.5 197t59.5 205 q0 98 -26.5 186t-85 161t-155 115t-231.5 42q-86 0 -169 -38t-151.5 -104.5t-111.5 -151.5t-51 -177zM434 49q0 -25 18.5 -42t43.5 -17t43 18.5t18 42.5q0 25 -18 42.5t-43 17.5t-43.5 -18.5t-18.5 -43.5z" />
<glyph unicode="A" horiz-adv-x="1540" d="M-170 -623l139 48l527 1284h682l229 -949l125 31l-492 2032h117l80 123h-619q-49 0 -102 -14.5t-98 -43t-73 -72.5t-28 -102q0 -68 43 -119t113 -73l66 94q-39 14 -57.5 46t-18.5 67q0 55 40 74.5t163 19.5h133zM545 831l383 949l221 -949h-604z" />
<glyph unicode="B" horiz-adv-x="1304" d="M-188 -240v-122q170 -127 346 -194t346 -67q152 0 289 60.5t243.5 179.5t167 289t60.5 383q0 133 -32 266t-98.5 254t-170 213t-240.5 143q86 55 133 147.5t49 213.5q0 229 -124 330.5t-347 101.5q-106 0 -201.5 -21.5t-187.5 -62.5v-123q37 20 76 33v-1782l123 31v1063 h166q178 0 316 -73t230.5 -193.5t138.5 -264t46 -280.5q0 -207 -60.5 -359.5t-157 -246t-207 -136.5t-212.5 -43q-170 0 -339 63.5t-353 196.5zM244 1219v596q10 2 41 6q94 14 149 14q154 0 251 -86t97 -223q0 -145 -100 -226t-240 -81h-198z" />
<glyph unicode="C" horiz-adv-x="1468" d="M41 891q0 -444 45 -741t130 -465t204 -238t276 -70q291 0 439 299l-78 84q-53 -86 -95 -136t-81 -76.5t-80 -35t-105 -8.5q-106 0 -192 38t-164 173t-127 422t-49 754q0 174 41 340t123 301t203.5 217t275.5 86q94 0 181 -17.5t159 -57.5t116 -107.5t48 -161.5l-2 2 l118 68q-8 117 -67.5 196.5t-148.5 122.5t-191 60.5t-211 17.5q-207 0 -356.5 -96.5t-239.5 -254t-131 -344t-41 -372.5z" />
<glyph unicode="D" horiz-adv-x="1300" d="M-193 -240v-122q170 -127 346.5 -194t346.5 -67q238 0 391 87t232 240t108 344.5t29 438.5q0 248 -38 500t-131.5 473t-257 359.5t-403.5 138.5q-106 0 -201.5 -21.5t-187.5 -62.5v-123q37 20 76 33v-1782l123 31v1782q10 2 41 6q94 14 149 14q182 0 317.5 -126 t221.5 -329.5t127 -438t41 -454.5q0 -236 -27 -411.5t-96.5 -304.5t-195.5 -200t-318 -71q-170 0 -339 63.5t-354 196.5z" />
<glyph unicode="E" horiz-adv-x="1503" d="M41 1714q0 -68 43 -119t113 -73l65 94q-39 14 -57.5 46t-18.5 67q0 47 28 67.5t105 24.5v-2444h785v123h-662v1596h832l4 123h-836v604h1020v123h-1120q-49 0 -102.5 -14.5t-98.5 -43t-72.5 -72.5t-27.5 -102z" />
<glyph unicode="F" horiz-adv-x="1503" d="M41 1714q0 -68 43 -119t113 -73l65 94q-39 14 -57.5 46t-18.5 67q0 47 28 67.5t105 24.5v-2444l123 31v1688h832l4 123h-836v604h1020v123h-1120q-49 0 -102.5 -14.5t-98.5 -43t-72.5 -72.5t-27.5 -102z" />
<glyph unicode="G" horiz-adv-x="1468" d="M41 891q0 -442 49 -739t138 -466t211 -239t282 -70q96 0 155.5 34t155.5 126v-149l123 28v582l-123 -31v-243q-70 -129 -132 -174.5t-171 -45.5q-111 0 -202 38t-175 173t-136 422t-52 754q0 174 41 340t123 301t203.5 217t275.5 86q92 0 177 -18.5t154.5 -59.5 t114.5 -106.5t56 -157.5l118 68q-12 115 -70.5 193.5t-148.5 122.5t-191.5 62.5t-207.5 18.5q-207 0 -356.5 -96.5t-239.5 -254t-131 -344t-41 -372.5z" />
<glyph unicode="H" horiz-adv-x="1372" d="M41 1716q0 -68 43 -119t113 -73l65 94q-39 14 -57.5 46t-18.5 67q0 47 27 67.5t102 24.5v-2437h2l121 30h2v1293h768v-1115l123 31v2321h-123v-1115h-768v994l107 -2l51 125h-256q-49 0 -102.5 -14.5t-98.5 -43t-72.5 -72.5t-27.5 -102z" />
<glyph unicode="I" horiz-adv-x="638" d="M41 1716q0 -68 43 -119t113 -73l65 94q-39 14 -57.5 46t-18.5 67q0 47 28 67.5t103 24.5v-2437l123 30v2409l107 -2l51 125h-256q-49 0 -102.5 -14.5t-98.5 -43t-72.5 -72.5t-27.5 -102z" />
<glyph unicode="J" horiz-adv-x="638" d="M41 1716q0 -68 43 -119t113 -73l65 94q-39 14 -57.5 46t-18.5 67q0 47 28 67.5t103 24.5v-2118q0 -82 -20.5 -152.5t-60.5 -117.5h8l73 -58q123 147 123 338v2110l107 -2l51 125h-256q-49 0 -102.5 -14.5t-98.5 -43t-72.5 -72.5t-27.5 -102z" />
<glyph unicode="K" horiz-adv-x="1501" d="M41 1714q0 -68 43 -119t113 -73l65 94q-39 14 -57.5 46t-18.5 67q0 47 28 67.5t103 24.5v-2437l123 30v1045l363 528l534 -1407l123 58l-567 1480l567 828h-162l-858 -1258v1135l107 -2l51 125h-256q-49 0 -102.5 -14.5t-98.5 -43t-72.5 -72.5t-27.5 -102z" />
<glyph unicode="L" horiz-adv-x="1144" d="M41 1714q0 -68 43 -119t113 -73l65 94q-39 14 -57.5 46t-18.5 67q0 47 28 67.5t105 24.5v-2444h736l49 123h-662v2323h133l60 123h-293q-49 0 -102.5 -14.5t-98.5 -43t-72.5 -72.5t-27.5 -102z" />
<glyph unicode="M" horiz-adv-x="2017" d="M41 1716q0 -68 43 -119t113 -73l65 94q-39 14 -57.5 46t-18.5 67q0 47 27 67.5t102 24.5v-2437h2l121 30h2v2183l639 -2005l123 31l651 1985v-1770l123 31v2075h-123l-702 -2106l-666 1985l62 -2l51 125h-256q-49 0 -102.5 -14.5t-98.5 -43t-72.5 -72.5t-27.5 -102z" />
<glyph unicode="N" horiz-adv-x="1372" d="M41 1716q0 -68 43 -119t113 -73l65 94q-39 14 -57.5 46t-18.5 67q0 47 27 67.5t102 24.5v-2437h2l121 30h2v2183l768 -2005l123 31v2321h-123v-2020l-723 1899l62 -2l51 125h-256q-49 0 -102.5 -14.5t-98.5 -43t-72.5 -72.5t-27.5 -102z" />
<glyph unicode="O" horiz-adv-x="1570" d="M41 913q0 -365 51 -650.5t149.5 -482t236.5 -296.5t310 -100q352 0 547 397t195 1132q0 195 -36 376t-120 332t-229.5 241t-356.5 90q-197 0 -341 -90t-233 -242t-131 -334t-42 -373zM164 913q0 193 49 362t135 294t200.5 193.5t239.5 68.5q145 0 261 -74t195 -202 t119 -292.5t40 -344.5q0 -303 -44 -563.5t-126 -452t-195.5 -295t-249.5 -103.5q-139 0 -254.5 103.5t-198.5 295t-127 449.5t-44 561z" />
<glyph unicode="P" horiz-adv-x="1173" d="M41 1751q37 20 76 33v-2398l123 30v1280h223q119 0 231.5 23.5t213 89t163 191.5t62.5 321q0 180 -67 305t-172.5 197.5t-226 103.5t-237.5 31q-106 0 -201.5 -21.5t-187.5 -62.5v-123zM240 819v996q10 2 41 6q94 14 149 14q86 0 184.5 -27.5t189.5 -88t148.5 -161 t57.5 -237.5q0 -170 -56.5 -274.5t-142.5 -152.5t-171 -61.5t-177 -13.5h-223z" />
<glyph unicode="Q" horiz-adv-x="1570" d="M41 913q0 -365 51 -650.5t149.5 -482t236.5 -296.5t310 -100q270 0 451 239l66 -119h168l-144 267q201 406 201 1142q0 195 -36 376t-120 332t-229.5 241t-356.5 90q-197 0 -341 -90t-233 -242t-131 -334t-42 -373zM164 913q0 193 49 362t135 294t201 193.5t239 68.5 q145 0 261 -74t195 -202t119 -292.5t40 -344.5q0 -293 -42 -545t-118 -443l-37 70h-178l133 -238q-76 -125 -171 -191.5t-202 -66.5q-139 0 -254.5 103.5t-198.5 295t-127 449.5t-44 561z" />
<glyph unicode="R" horiz-adv-x="1173" d="M41 1751q37 20 76 33v-2398l123 30v1280h223q96 0 184 15l363 -1145l123 24l-361 1153q78 27 141.5 71t113.5 112.5t78 167t28 227.5q0 180 -67 305t-172.5 197.5t-226 103.5t-237.5 31q-106 0 -201.5 -21.5t-187.5 -62.5v-123zM240 819v996q10 2 41 6q94 14 149 14 q86 0 184.5 -27.5t189.5 -88t148.5 -161t57.5 -237.5q0 -170 -56.5 -274.5t-142.5 -152.5t-171 -61.5t-177 -13.5h-223z" />
<glyph unicode="S" horiz-adv-x="1570" d="M41 1227q0 -164 49 -284t130 -193.5t174 -107.5t184 -34q74 0 133 21q152 55 293 55q176 0 287.5 -83t111.5 -216q0 -182 -45 -342t-128 -281.5t-195.5 -189.5t-246.5 -68q-133 0 -243.5 95.5t-194.5 271.5l-121 -64q96 -207 238.5 -315t320.5 -108q170 0 308.5 82.5 t236 228t147.5 334t50 395.5q0 102 -48 180t-127 127t-175.5 73.5t-192.5 24.5q-98 0 -178 -24q-123 -37 -234 -37q-186 0 -298.5 109.5t-112.5 334.5q0 135 49 250t136 198t201 127t238 44q160 0 284 -88t204 -242l139 41q-86 193 -238.5 301.5t-388.5 108.5 q-193 0 -336 -63.5t-234 -170t-134 -233.5t-43 -258z" />
<glyph unicode="T" horiz-adv-x="1269" d="M41 1716q0 -68 43 -119t113 -73l65 94q-39 14 -57.5 46t-18.5 67q0 29 39 60.5t105 31.5h329v-2437l123 30v2409l396 -2l51 125h-887q-49 0 -102.5 -14.5t-98.5 -43t-72.5 -72.5t-27.5 -102z" />
<glyph unicode="U" horiz-adv-x="1431" d="M41 -135q0 -223 112.5 -339t356.5 -116q106 0 240 23q164 29 270 104.5t163.5 180t81 218t31.5 250.5l93 1524q0 106 -94.5 171t-227.5 65l-45 -123q27 6 55 6q78 0 132.5 -49t54.5 -131l-103 -1397q-2 -20 -4 -59q-4 -111 -16.5 -195t-52 -171t-123.5 -154.5t-222 -98.5 q-123 -27 -221 -27q-184 0 -271 92.5t-87 264.5v2042h-123v-2081z" />
<glyph unicode="V" horiz-adv-x="1777" d="M41 1946l844 -2569h123l702 2184q25 78 25 131q0 88 -71 155.5t-249 98.5l-45 -123q125 -12 175 -56.5t50 -105.5q0 -37 -20 -98v-2l-629 -2010l-778 2395h-127z" />
<glyph unicode="W" horiz-adv-x="2533" d="M41 1946l844 -2569h123l315 969l317 -969h123l703 2184q25 78 24 131q0 88 -70.5 155.5t-248.5 98.5l-45 -123q125 -12 175 -56.5t50 -105.5q0 -37 -20 -98v-2l-629 -2010l-320 981l459 1414h-143l-381 -1213l-393 1213h-127l460 -1403l-311 -992l-778 2395h-127z" />
<glyph unicode="X" horiz-adv-x="1794" d="M41 1946l813 -1422l-776 -1142l168 30l696 981l473 -788l150 33l-537 872l682 1051q29 43 47.5 88t18.5 90q0 82 -82 138t-279 69l-45 -123q135 -14 194.5 -49t59.5 -91q0 -51 -49 -122l-633 -932l-737 1317h-164z" />
<glyph unicode="Y" horiz-adv-x="1794" d="M41 1946l813 -1422l-776 -1142l168 30l1464 2149q25 37 39 78.5t14 82.5q0 86 -79.5 147.5t-268.5 76.5l-45 -123q133 -14 192.5 -50t59.5 -94q0 -49 -47 -118l-633 -932l-737 1317h-164z" />
<glyph unicode="Z" horiz-adv-x="1509" d="M41 1716q0 -68 43 -119t113 -73l65 94q-39 14 -57.5 46t-18.5 67q0 47 27 67.5t102 24.5h942l-1151 -2433h3l1153 280l69 150l-1020 -277l1157 2405h-1126q-49 0 -102.5 -14.5t-98.5 -43t-72.5 -72.5t-27.5 -102z" />
<glyph unicode="a" horiz-adv-x="735" d="M41 274q0 -55 25.5 -107t69.5 -92t104.5 -62.5t126.5 -22.5q53 0 105 19.5t99 49.5v-57h123v602q-6 227 -321 227q-68 0 -133.5 -26.5t-120.5 -65.5v-129q57 51 115.5 75t132.5 24q98 0 148 -30t56 -87v-103q-91 62 -202 62q-66 0 -126.5 -21.5t-105.5 -59.5t-70.5 -88 t-25.5 -108zM158 274q0 63 62.5 108.5t148.5 45.5q74 0 130 -34t72 -85v-69q-18 -53 -74.5 -90t-127.5 -37q-86 0 -148.5 49t-62.5 112z" />
<glyph unicode="b" horiz-adv-x="907" d="M41 6h123v115q61 -59 134 -95t153 -36q84 0 159.5 33.5t133 93t90 136.5t32.5 159t-32.5 158.5t-90 135t-133 92t-157.5 33.5t-156 -35.5t-133 -93.5v1248l-123 -31v-1913zM164 383v57q10 109 93 189t194 80h-2q57 0 111 -23.5t95 -65.5t64.5 -96.5t23.5 -111.5 t-22.5 -110.5t-63.5 -94.5t-94 -64.5t-112 -23.5q-111 0 -194 77.5t-93 186.5z" />
<glyph unicode="c" horiz-adv-x="710" d="M41 412q0 -82 32.5 -159t90 -136.5t132.5 -93t159 -33.5q51 0 103 20.5t112 55.5l-6 151q-45 -45 -99.5 -74.5t-111.5 -29.5t-110.5 23.5t-93.5 66.5t-62.5 97t-22.5 112q0 57 22.5 111.5t63.5 96.5t94.5 65.5t110.5 23.5q51 0 98 -23.5t92 -62.5l-6 151q-57 29 -99 43 t-85 14q-84 0 -159 -33.5t-132.5 -92t-90 -135t-32.5 -158.5z" />
<glyph unicode="d" d="M41 412q0 -82 32.5 -159t90 -136.5t132.5 -93t159 -33.5q80 0 153.5 36.5t136.5 96.5v-119h123v1944l-123 -31v-1217q-61 59 -135.5 95t-152.5 36q-84 0 -160 -33.5t-133.5 -92t-90 -135t-32.5 -158.5zM164 412q0 57 22.5 111.5t63.5 96.5t94.5 65.5t110.5 23.5 t110 -23.5t94 -65.5t63.5 -96.5t22.5 -111.5t-21.5 -111.5t-61 -97.5t-93 -66.5t-110.5 -23.5t-111.5 24.5t-95.5 66.5t-64.5 96t-23.5 112z" />
<glyph unicode="e" d="M41 412q0 -82 32.5 -159t90 -136.5t132.5 -93t159 -33.5q74 0 142.5 31.5t129.5 84.5l-53 121q-45 -49 -101.5 -81.5t-117.5 -32.5q-106 0 -188.5 76.5t-98.5 181.5h698q2 14 2 41q0 82 -32.5 158.5t-90 135t-133 92t-159.5 33.5t-159 -33.5t-132.5 -92t-89 -135 t-31.5 -158.5zM176 494q29 90 106.5 152.5t172.5 62.5h-2q96 0 174 -62.5t106 -152.5h-557z" />
<glyph unicode="f" horiz-adv-x="657" d="M41 2h123v694h303v123h-303v899q6 55 55 80t150 25q80 0 137 -18.5t110 -67.5v129q-51 37 -117.5 58.5t-136.5 21.5q-315 0 -321 -215v-1729z" />
<glyph unicode="g" d="M41 412q0 -82 32.5 -159t90 -136.5t132.5 -93t159 -33.5q80 0 153.5 36.5t136.5 96.5v-410q0 -82 -20 -152.5t-61 -117.5h8l73 -57q123 147 123 338v1095h-123v-119q-61 59 -135.5 95t-154.5 36q-84 0 -159 -33.5t-132.5 -92t-90 -135t-32.5 -158.5zM164 412 q0 57 22.5 111.5t62.5 96.5t93.5 65.5t110.5 23.5t111 -23.5t95 -65.5t63.5 -96.5t22.5 -111.5t-22.5 -111.5t-63.5 -96.5t-94 -66.5t-110 -24.5t-110.5 24.5t-94.5 66.5t-63.5 96t-22.5 112z" />
<glyph unicode="h" horiz-adv-x="759" d="M41 2h123v627q49 39 101 53t126 14q102 0 150.5 -24.5t54.5 -79.5v-590h123v602q-6 215 -322 215q-61 0 -122.5 -18.5t-110.5 -48.5v1194l-123 -31v-1913z" />
<glyph unicode="i" horiz-adv-x="204" d="M41 2h123v817h-123v-817zM43 1001q0 -25 17.5 -42t41.5 -17q25 0 43.5 17.5t18.5 41.5q0 25 -18.5 42.5t-43.5 17.5t-42 -17.5t-17 -42.5z" />
<glyph unicode="j" horiz-adv-x="208" d="M-37 -557h8l74 -57q123 147 123 338v1095h-123v-1106q0 -82 -20.5 -152.5t-61.5 -117.5zM47 1001q0 -25 17.5 -42t41.5 -17q25 0 43.5 17.5t18.5 41.5q0 25 -18.5 42.5t-43.5 17.5t-42 -17.5t-17 -42.5z" />
<glyph unicode="k" horiz-adv-x="677" d="M41 2h123v363l397 -363l76 88l-371 336l307 301l-81 84l-328 -324v1459l-123 -31v-1913z" />
<glyph unicode="l" horiz-adv-x="204" d="M41 2h123v1944l-123 -31v-1913z" />
<glyph unicode="m" horiz-adv-x="1284" d="M41 2h123v623q102 84 233 84q98 0 147.5 -30t55.5 -87v-590h123v602q0 14 -4 39v4q98 61 196 62q98 0 148.5 -31t56.5 -88v-590h123v602q-6 229 -321 229q-63 0 -128 -25.5t-122 -64.5q-86 90 -271 90q-61 0 -121.5 -23.5t-115.5 -57.5v69h-123v-817z" />
<glyph unicode="n" horiz-adv-x="763" d="M41 2h123v623q102 84 233 84q98 0 147.5 -30t55.5 -87v-590h123v602q-6 227 -322 227q-61 0 -121.5 -23.5t-115.5 -57.5v69h-123v-817z" />
<glyph unicode="o" d="M41 412q0 -82 32.5 -159t90 -136.5t132.5 -93t159 -33.5t159.5 33.5t132 93t89 136.5t32.5 159t-32.5 158.5t-89 135t-132 92t-159.5 33.5t-159 -33.5t-132.5 -92t-90 -135t-32.5 -158.5zM164 412q0 57 22.5 111.5t63.5 96.5t94.5 65.5t110.5 23.5t110 -23.5t94 -65.5 t63.5 -96.5t22.5 -111.5t-22.5 -111.5t-63.5 -96.5t-94 -66.5t-110 -24.5t-110.5 24.5t-94.5 66.5t-63.5 96t-22.5 112z" />
<glyph unicode="p" d="M41 -612l123 30v699q61 -57 136 -92t155 -35q84 0 159.5 32.5t132 91t89 134.5t32.5 158t-32.5 159.5t-89 137t-132 94t-159.5 34.5q-78 0 -153 -37.5t-138 -99.5v125l-123 -31v-1400zM164 406q0 57 22.5 111t63.5 98t94.5 69t110.5 25t110 -25t94 -68t63.5 -98 t22.5 -112t-22.5 -110.5t-63.5 -94.5t-94 -64.5t-112 -23.5t-111.5 23.5t-92.5 64.5t-62.5 94t-22.5 111z" />
<glyph unicode="q" d="M41 412q0 -82 32.5 -159t90 -136.5t132.5 -93t159 -33.5q80 0 153.5 36.5t136.5 96.5v-402q0 -190 123 -337l74 57h8q-41 47 -61.5 117.5t-20.5 152.5v1106h-123v-117q-61 59 -135.5 95t-154.5 36q-84 0 -159 -33.5t-132.5 -92t-90 -135t-32.5 -158.5zM164 412 q0 57 22.5 111.5t63.5 96.5t94.5 65.5t110.5 23.5t110 -23.5t94 -65.5t63.5 -96.5t22.5 -111.5t-22.5 -111.5t-63.5 -96.5t-94 -66.5t-110 -24.5t-110.5 24.5t-94.5 66.5t-63.5 96t-22.5 112z" />
<glyph unicode="r" horiz-adv-x="694" d="M41 2h123v623q53 43 108.5 63.5t122.5 20.5q61 0 133 -20.5t125 -53.5v129q-45 29 -111.5 48t-140.5 19q-61 0 -121.5 -23.5t-115.5 -57.5v69h-123v-817z" />
<glyph unicode="s" horiz-adv-x="735" d="M41 604q0 -59 24.5 -95t67.5 -52.5t94.5 -20.5t139.5 -6q88 0 149.5 -46t61.5 -110q0 -61 -75 -111t-167 -50q-61 2 -135 23.5t-109 51.5l-35 -106q80 -45 145.5 -68.5t139.5 -23.5q68 0 131.5 22.5t113.5 62.5t78.5 91t28.5 108t-25.5 107.5t-70.5 89.5t-104.5 60.5 t-126.5 21.5q-109 0 -156 8t-47 45q0 51 54 77t144 26q92 0 136.5 -17.5t83.5 -52.5q20 -20 34 -29v129q-41 45 -108.5 68.5t-142.5 23.5q-43 0 -98.5 -13t-106.5 -40.5t-85 -70.5t-34 -103z" />
<glyph unicode="t" horiz-adv-x="448" d="M41 696h121v-694h123v694h123v123h-123v178l-123 -30v-148h-121v-123z" />
<glyph unicode="u" horiz-adv-x="743" d="M41 274q0 -55 27.5 -107t76 -91t110.5 -62.5t128 -23.5q135 0 227 82t92 198v549h-122v-551q0 -63 -57.5 -109t-143.5 -46t-150.5 49t-64.5 112v545h-123v-545z" />
<glyph unicode="v" horiz-adv-x="743" d="M41 819l276 -817h123l262 817h-122l-201 -653l-215 653h-123z" />
<glyph unicode="w" horiz-adv-x="1280" d="M41 819l276 -817h123l201 629l213 -629h123l262 817h-123l-201 -653l-213 649v4h-124l2 -4l-201 -649l-215 653h-123z" />
<glyph unicode="x" horiz-adv-x="743" d="M41 2h143l187 295l188 -295h143l-260 408l260 409h-143l-188 -297l-187 297h-143l258 -409z" />
<glyph unicode="y" horiz-adv-x="743" d="M41 274q0 -55 27.5 -106t76 -91t109.5 -63.5t127 -23.5q51 0 101 18.5t98 48.5v-344q0 -82 -20.5 -152.5t-61.5 -117.5h8l74 -57q123 147 122 338v1095h-122v-567q-8 -57 -66.5 -98t-138.5 -41q-86 0 -148.5 49t-62.5 112v545h-123v-545z" />
<glyph unicode="z" horiz-adv-x="743" d="M41 2h661v123h-518l518 571v123h-661v-123h512l-512 -571v-123z" />
<glyph unicode="&#xad;" horiz-adv-x="591" d="M41 543h510v123h-510v-123z" />
<glyph unicode="&#x2000;" horiz-adv-x="979" />
<glyph unicode="&#x2001;" horiz-adv-x="1958" />
<glyph unicode="&#x2002;" horiz-adv-x="979" />
<glyph unicode="&#x2003;" horiz-adv-x="1958" />
<glyph unicode="&#x2004;" horiz-adv-x="652" />
<glyph unicode="&#x2005;" horiz-adv-x="489" />
<glyph unicode="&#x2006;" horiz-adv-x="326" />
<glyph unicode="&#x2007;" horiz-adv-x="326" />
<glyph unicode="&#x2008;" horiz-adv-x="244" />
<glyph unicode="&#x2009;" horiz-adv-x="391" />
<glyph unicode="&#x200a;" horiz-adv-x="108" />
<glyph unicode="&#x2010;" horiz-adv-x="591" d="M41 543h510v123h-510v-123z" />
<glyph unicode="&#x2011;" horiz-adv-x="591" d="M41 543h510v123h-510v-123z" />
<glyph unicode="&#x2012;" horiz-adv-x="591" d="M41 543h510v123h-510v-123z" />
<glyph unicode="&#x2013;" horiz-adv-x="1105" d="M41 543h1024v123h-1024v-123z" />
<glyph unicode="&#x2014;" horiz-adv-x="2129" d="M41 543h2048v123h-2048v-123z" />
<glyph unicode="&#x202f;" horiz-adv-x="391" />
<glyph unicode="&#x205f;" horiz-adv-x="489" />
<glyph unicode="&#xe000;" horiz-adv-x="819" d="M0 0v819h819v-819h-819z" />
</font>
</defs>
</svg>
